<mxfile host="app.diagrams.net" agent="Mozilla/5.0 (Windows NT 10.0; Win64; x64) AppleWebKit/537.36 (KHTML, like Gecko) Chrome/135.0.0.0 Safari/537.36" version="26.2.13">
  <diagram name="Page-1" id="LlM30M46nGqZfjf9sgJn">
    <mxGraphModel dx="1228" dy="661" grid="1" gridSize="10" guides="1" tooltips="1" connect="1" arrows="1" fold="1" page="1" pageScale="1" pageWidth="850" pageHeight="1100" math="0" shadow="0">
      <root>
        <mxCell id="0" />
        <mxCell id="1" parent="0" />
        <mxCell id="r_VT8B9llO-ufOeD4YyH-2" value="Tirana Public&amp;nbsp;&lt;div&gt;Transportation&amp;nbsp;&lt;/div&gt;&lt;div&gt;Management System&lt;/div&gt;" style="ellipse;whiteSpace=wrap;html=1;aspect=fixed;" vertex="1" parent="1">
          <mxGeometry x="350" y="200" width="150" height="150" as="geometry" />
        </mxCell>
        <mxCell id="r_VT8B9llO-ufOeD4YyH-3" value="User" style="whiteSpace=wrap;html=1;aspect=fixed;" vertex="1" parent="1">
          <mxGeometry x="80" y="200" width="120" height="120" as="geometry" />
        </mxCell>
        <mxCell id="r_VT8B9llO-ufOeD4YyH-4" style="edgeStyle=orthogonalEdgeStyle;rounded=0;orthogonalLoop=1;jettySize=auto;html=1;entryX=0.022;entryY=0.404;entryDx=0;entryDy=0;entryPerimeter=0;" edge="1" parent="1" source="r_VT8B9llO-ufOeD4YyH-3" target="r_VT8B9llO-ufOeD4YyH-2">
          <mxGeometry relative="1" as="geometry">
            <mxPoint x="340" y="260" as="targetPoint" />
          </mxGeometry>
        </mxCell>
        <mxCell id="r_VT8B9llO-ufOeD4YyH-6" style="edgeStyle=orthogonalEdgeStyle;rounded=0;orthogonalLoop=1;jettySize=auto;html=1;entryX=1;entryY=0.622;entryDx=0;entryDy=0;entryPerimeter=0;" edge="1" parent="1" source="r_VT8B9llO-ufOeD4YyH-2" target="r_VT8B9llO-ufOeD4YyH-3">
          <mxGeometry relative="1" as="geometry">
            <mxPoint x="190" y="275" as="targetPoint" />
          </mxGeometry>
        </mxCell>
      </root>
    </mxGraphModel>
  </diagram>
</mxfile>
